<mxfile host="Electron" agent="Mozilla/5.0 (Windows NT 10.0; Win64; x64) AppleWebKit/537.36 (KHTML, like Gecko) draw.io/24.7.5 Chrome/126.0.6478.183 Electron/31.3.0 Safari/537.36" version="24.7.5">
  <diagram name="Page-1" id="2YBvvXClWsGukQMizWep">
    <mxGraphModel dx="1134" dy="724" grid="1" gridSize="10" guides="1" tooltips="1" connect="1" arrows="1" fold="1" page="1" pageScale="1" pageWidth="850" pageHeight="1100" math="0" shadow="0">
      <root>
        <mxCell id="0" />
        <mxCell id="1" parent="0" />
        <mxCell id="aM9ryv3xv72pqoxQDRHE-5" value="&lt;u&gt;GUI Library&amp;nbsp;System&lt;/u&gt;" style="shape=umlLifeline;perimeter=lifelinePerimeter;whiteSpace=wrap;html=1;container=0;dropTarget=0;collapsible=0;recursiveResize=0;outlineConnect=0;portConstraint=eastwest;newEdgeStyle={&quot;edgeStyle&quot;:&quot;elbowEdgeStyle&quot;,&quot;elbow&quot;:&quot;vertical&quot;,&quot;curved&quot;:0,&quot;rounded&quot;:0};" parent="1" vertex="1">
          <mxGeometry x="210" y="40" width="100" height="450" as="geometry" />
        </mxCell>
        <mxCell id="aM9ryv3xv72pqoxQDRHE-6" value="" style="html=1;points=[];perimeter=orthogonalPerimeter;outlineConnect=0;targetShapes=umlLifeline;portConstraint=eastwest;newEdgeStyle={&quot;edgeStyle&quot;:&quot;elbowEdgeStyle&quot;,&quot;elbow&quot;:&quot;vertical&quot;,&quot;curved&quot;:0,&quot;rounded&quot;:0};" parent="aM9ryv3xv72pqoxQDRHE-5" vertex="1">
          <mxGeometry x="45" y="80" width="10" height="330" as="geometry" />
        </mxCell>
        <mxCell id="aM9ryv3xv72pqoxQDRHE-7" value="1. AddNewBookRequest()" style="html=1;verticalAlign=bottom;endArrow=block;edgeStyle=elbowEdgeStyle;elbow=vertical;curved=0;rounded=0;" parent="1" target="aM9ryv3xv72pqoxQDRHE-6" edge="1">
          <mxGeometry relative="1" as="geometry">
            <mxPoint x="30" y="130" as="sourcePoint" />
            <Array as="points">
              <mxPoint x="180" y="120" />
            </Array>
          </mxGeometry>
        </mxCell>
        <mxCell id="Q_Jy_U-GVRsSF5WUOLQj-4" value="&lt;u&gt;:&amp;nbsp;BookController&lt;/u&gt;" style="shape=umlLifeline;perimeter=lifelinePerimeter;whiteSpace=wrap;html=1;container=0;dropTarget=0;collapsible=0;recursiveResize=0;outlineConnect=0;portConstraint=eastwest;newEdgeStyle={&quot;edgeStyle&quot;:&quot;elbowEdgeStyle&quot;,&quot;elbow&quot;:&quot;vertical&quot;,&quot;curved&quot;:0,&quot;rounded&quot;:0};" parent="1" vertex="1">
          <mxGeometry x="380" y="40" width="100" height="450" as="geometry" />
        </mxCell>
        <mxCell id="7ux72GHDfaee7IkrRFRi-23" value="" style="html=1;points=[];perimeter=orthogonalPerimeter;outlineConnect=0;targetShapes=umlLifeline;portConstraint=eastwest;newEdgeStyle={&quot;edgeStyle&quot;:&quot;elbowEdgeStyle&quot;,&quot;elbow&quot;:&quot;vertical&quot;,&quot;curved&quot;:0,&quot;rounded&quot;:0};" vertex="1" parent="Q_Jy_U-GVRsSF5WUOLQj-4">
          <mxGeometry x="45" y="200" width="10" height="130" as="geometry" />
        </mxCell>
        <mxCell id="Q_Jy_U-GVRsSF5WUOLQj-10" value="&lt;u&gt;: Book&lt;/u&gt;" style="shape=umlLifeline;perimeter=lifelinePerimeter;whiteSpace=wrap;html=1;container=0;dropTarget=0;collapsible=0;recursiveResize=0;outlineConnect=0;portConstraint=eastwest;newEdgeStyle={&quot;edgeStyle&quot;:&quot;elbowEdgeStyle&quot;,&quot;elbow&quot;:&quot;vertical&quot;,&quot;curved&quot;:0,&quot;rounded&quot;:0};" parent="1" vertex="1">
          <mxGeometry x="560" y="40" width="100" height="450" as="geometry" />
        </mxCell>
        <mxCell id="7ux72GHDfaee7IkrRFRi-15" value="" style="html=1;points=[];perimeter=orthogonalPerimeter;outlineConnect=0;targetShapes=umlLifeline;portConstraint=eastwest;newEdgeStyle={&quot;edgeStyle&quot;:&quot;elbowEdgeStyle&quot;,&quot;elbow&quot;:&quot;vertical&quot;,&quot;curved&quot;:0,&quot;rounded&quot;:0};" vertex="1" parent="Q_Jy_U-GVRsSF5WUOLQj-10">
          <mxGeometry x="45" y="220" width="10" height="40" as="geometry" />
        </mxCell>
        <mxCell id="Q_Jy_U-GVRsSF5WUOLQj-21" value="" style="whiteSpace=wrap;html=1;" parent="1" vertex="1">
          <mxGeometry x="260" y="370" width="10" height="60" as="geometry" />
        </mxCell>
        <mxCell id="Q_Jy_U-GVRsSF5WUOLQj-24" value="8.DisplayConfirmation()" style="text;html=1;align=center;verticalAlign=middle;resizable=0;points=[];autosize=1;strokeColor=none;fillColor=none;" parent="1" vertex="1">
          <mxGeometry x="275" y="408" width="150" height="30" as="geometry" />
        </mxCell>
        <mxCell id="Q_Jy_U-GVRsSF5WUOLQj-27" value="9" style="text;html=1;align=center;verticalAlign=middle;resizable=0;points=[];autosize=1;strokeColor=none;fillColor=none;" parent="1" vertex="1">
          <mxGeometry x="145" y="408" width="30" height="30" as="geometry" />
        </mxCell>
        <mxCell id="Q_Jy_U-GVRsSF5WUOLQj-28" value="5.&amp;nbsp; SaveNewBook(BookDetails) " style="text;html=1;align=center;verticalAlign=middle;resizable=0;points=[];autosize=1;strokeColor=none;fillColor=none;" parent="1" vertex="1">
          <mxGeometry x="425" y="230" width="190" height="30" as="geometry" />
        </mxCell>
        <mxCell id="Q_Jy_U-GVRsSF5WUOLQj-30" style="edgeStyle=orthogonalEdgeStyle;rounded=0;orthogonalLoop=1;jettySize=auto;html=1;exitX=0;exitY=0.75;exitDx=0;exitDy=0;" parent="1" source="Q_Jy_U-GVRsSF5WUOLQj-21" edge="1">
          <mxGeometry relative="1" as="geometry">
            <mxPoint x="30" y="416" as="targetPoint" />
          </mxGeometry>
        </mxCell>
        <mxCell id="Q_Jy_U-GVRsSF5WUOLQj-31" value="" style="edgeStyle=none;orthogonalLoop=1;jettySize=auto;html=1;rounded=0;dashed=1;endArrow=cross;endFill=0;" parent="1" edge="1">
          <mxGeometry width="100" relative="1" as="geometry">
            <mxPoint x="30" y="88" as="sourcePoint" />
            <mxPoint x="30" y="490" as="targetPoint" />
            <Array as="points" />
          </mxGeometry>
        </mxCell>
        <mxCell id="Q_Jy_U-GVRsSF5WUOLQj-33" value="" style="edgeStyle=none;orthogonalLoop=1;jettySize=auto;html=1;rounded=0;dashed=1;endArrow=cross;endFill=0;" parent="1" edge="1">
          <mxGeometry width="100" relative="1" as="geometry">
            <mxPoint x="30" y="80" as="sourcePoint" />
            <mxPoint x="30" y="88" as="targetPoint" />
            <Array as="points" />
          </mxGeometry>
        </mxCell>
        <mxCell id="Q_Jy_U-GVRsSF5WUOLQj-34" value="&lt;u&gt;:&amp;nbsp;Admin&lt;/u&gt;" style="shape=umlActor;verticalLabelPosition=bottom;verticalAlign=top;html=1;outlineConnect=0;" parent="1" vertex="1">
          <mxGeometry x="20" width="30" height="60" as="geometry" />
        </mxCell>
        <mxCell id="7ux72GHDfaee7IkrRFRi-7" style="edgeStyle=elbowEdgeStyle;rounded=0;orthogonalLoop=1;jettySize=auto;html=1;elbow=vertical;curved=0;dashed=1;" edge="1" parent="1">
          <mxGeometry relative="1" as="geometry">
            <mxPoint x="425" y="170" as="sourcePoint" />
            <mxPoint x="259.54761904761926" y="170" as="targetPoint" />
            <Array as="points">
              <mxPoint x="370" y="170" />
            </Array>
          </mxGeometry>
        </mxCell>
        <mxCell id="7ux72GHDfaee7IkrRFRi-8" value="2.PromptForBookDetails()" style="text;html=1;align=center;verticalAlign=middle;resizable=0;points=[];autosize=1;strokeColor=none;fillColor=none;" vertex="1" parent="1">
          <mxGeometry x="270" y="140" width="160" height="30" as="geometry" />
        </mxCell>
        <mxCell id="7ux72GHDfaee7IkrRFRi-14" style="edgeStyle=elbowEdgeStyle;rounded=0;orthogonalLoop=1;jettySize=auto;html=1;elbow=vertical;curved=0;" edge="1" parent="1">
          <mxGeometry relative="1" as="geometry">
            <mxPoint x="436.38" y="260" as="sourcePoint" />
            <mxPoint x="604" y="260" as="targetPoint" />
            <Array as="points">
              <mxPoint x="526.38" y="260" />
            </Array>
          </mxGeometry>
        </mxCell>
        <mxCell id="7ux72GHDfaee7IkrRFRi-16" style="edgeStyle=elbowEdgeStyle;rounded=0;orthogonalLoop=1;jettySize=auto;html=1;elbow=vertical;curved=0;dashed=1;" edge="1" parent="1" source="7ux72GHDfaee7IkrRFRi-15" target="Q_Jy_U-GVRsSF5WUOLQj-4">
          <mxGeometry relative="1" as="geometry">
            <Array as="points">
              <mxPoint x="510" y="300" />
              <mxPoint x="543" y="370" />
            </Array>
          </mxGeometry>
        </mxCell>
        <mxCell id="Q_Jy_U-GVRsSF5WUOLQj-22" style="edgeStyle=orthogonalEdgeStyle;rounded=0;orthogonalLoop=1;jettySize=auto;html=1;elbow=vertical;entryX=1;entryY=0.5;entryDx=0;entryDy=0;" parent="1" target="Q_Jy_U-GVRsSF5WUOLQj-21" edge="1" source="aM9ryv3xv72pqoxQDRHE-5">
          <mxGeometry relative="1" as="geometry">
            <mxPoint x="320" y="400" as="targetPoint" />
            <mxPoint x="265" y="360" as="sourcePoint" />
            <Array as="points">
              <mxPoint x="340" y="360" />
              <mxPoint x="340" y="400" />
            </Array>
          </mxGeometry>
        </mxCell>
        <mxCell id="7ux72GHDfaee7IkrRFRi-21" value="3.&lt;span style=&quot;color: rgba(0, 0, 0, 0); font-family: monospace; font-size: 0px; text-align: start; background-color: rgb(27, 29, 30);&quot;&gt;%3CmxGraphModel%3E%3Croot%3E%3CmxCell%20id%3D%220%22%2F%3E%3CmxCell%20id%3D%221%22%20parent%3D%220%22%2F%3E%3CmxCell%20id%3D%222%22%20value%3D%226.SelectBook(BookID)%22%20style%3D%22html%3D1%3BverticalAlign%3Dbottom%3BendArrow%3Dblock%3BedgeStyle%3DelbowEdgeStyle%3Belbow%3Dvertical%3Bcurved%3D0%3Brounded%3D0%3B%22%20edge%3D%221%22%20parent%3D%221%22%3E%3CmxGeometry%20relative%3D%221%22%20as%3D%22geometry%22%3E%3CmxPoint%20x%3D%2230%22%20y%3D%22308%22%20as%3D%22sourcePoint%22%2F%3E%3CArray%20as%3D%22points%22%3E%3CmxPoint%20x%3D%22180%22%20y%3D%22298%22%2F%3E%3C%2FArray%3E%3CmxPoint%20x%3D%22255%22%20y%3D%22298%22%20as%3D%22targetPoint%22%2F%3E%3C%2FmxGeometry%3E%3C%2FmxCell%3E%3C%2Froot%3E%3C%2FmxGraphModel%3E&lt;/span&gt;EnterBookDetails(BookDetails)" style="html=1;verticalAlign=bottom;endArrow=block;edgeStyle=elbowEdgeStyle;elbow=vertical;curved=0;rounded=0;" edge="1" parent="1">
          <mxGeometry relative="1" as="geometry">
            <mxPoint x="35" y="220" as="sourcePoint" />
            <Array as="points">
              <mxPoint x="185" y="210" />
            </Array>
            <mxPoint x="260" y="210" as="targetPoint" />
          </mxGeometry>
        </mxCell>
        <mxCell id="7ux72GHDfaee7IkrRFRi-22" style="edgeStyle=elbowEdgeStyle;rounded=0;orthogonalLoop=1;jettySize=auto;html=1;elbow=vertical;curved=0;" edge="1" parent="1" source="aM9ryv3xv72pqoxQDRHE-6" target="Q_Jy_U-GVRsSF5WUOLQj-4">
          <mxGeometry relative="1" as="geometry">
            <mxPoint x="380" y="264.71428571428567" as="targetPoint" />
            <Array as="points">
              <mxPoint x="330" y="240" />
            </Array>
          </mxGeometry>
        </mxCell>
        <mxCell id="7ux72GHDfaee7IkrRFRi-24" value="4.SubmitBookDetails&lt;div&gt;(BookDetails)&lt;/div&gt;" style="text;html=1;align=center;verticalAlign=middle;resizable=0;points=[];autosize=1;strokeColor=none;fillColor=none;" vertex="1" parent="1">
          <mxGeometry x="285" y="205" width="130" height="40" as="geometry" />
        </mxCell>
        <mxCell id="7ux72GHDfaee7IkrRFRi-25" style="edgeStyle=elbowEdgeStyle;rounded=0;orthogonalLoop=1;jettySize=auto;html=1;elbow=vertical;curved=0;dashed=1;dashPattern=8 8;" edge="1" parent="1" source="7ux72GHDfaee7IkrRFRi-23" target="aM9ryv3xv72pqoxQDRHE-5">
          <mxGeometry relative="1" as="geometry">
            <Array as="points">
              <mxPoint x="370" y="330" />
            </Array>
          </mxGeometry>
        </mxCell>
        <mxCell id="7ux72GHDfaee7IkrRFRi-26" value="6" style="text;html=1;align=center;verticalAlign=middle;resizable=0;points=[];autosize=1;strokeColor=none;fillColor=none;" vertex="1" parent="1">
          <mxGeometry x="505" y="278" width="30" height="30" as="geometry" />
        </mxCell>
        <mxCell id="7ux72GHDfaee7IkrRFRi-27" value="7.ConfirmBookAdded()" style="text;html=1;align=center;verticalAlign=middle;resizable=0;points=[];autosize=1;strokeColor=none;fillColor=none;" vertex="1" parent="1">
          <mxGeometry x="265" y="298" width="150" height="30" as="geometry" />
        </mxCell>
      </root>
    </mxGraphModel>
  </diagram>
</mxfile>
